<svg version="1.1" xmlns="http://www.w3.org/2000/svg" xmlns:xlink="http://www.w3.org/1999/xlink" width="100%" height="100%" viewBox="0 0 500 500" preserveAspectRatio="none"><g data-paper-data="{&quot;description&quot;:&quot;Logo for Danim\n==============\n\nThis logo was generated by MarkMaker at http://emblemmatic.org/markmaker/ and may be composed of elements designed by others.\n\nThe font is Droid Serif Bold Italic designed by Steve Matteson and released under the APACHE2 license via Google Fonts: https://www.google.com/fonts/specimen/Droid%20Serif. The font includes this copyright statement: Digitized data copyright © 2007, Google Corporation.\n\nMarkMaker uses semantic data from the Princeton University WordNet database http://wordnet.princeton.edu and font descriptions from Google Fonts https://www.google.com/fonts.&quot;}" fill="#40d8d8" fill-rule="nonzero" stroke="none" stroke-width="1" stroke-linecap="butt" stroke-linejoin="miter" stroke-miterlimit="10" stroke-dasharray="" stroke-dashoffset="0" font-family="none" font-weight="none" font-size="none" text-anchor="none" style="mix-blend-mode: normal"><g data-paper-data="{&quot;elementType&quot;:&quot;logo&quot;}"><g data-paper-data="{&quot;elementType&quot;:&quot;text&quot;}"><g data-paper-data="{&quot;baseline&quot;:77.001953125,&quot;elementType&quot;:&quot;row&quot;}"><g data-paper-data="{&quot;baselineProportion&quot;:0.9874765184721352,&quot;fontSize&quot;:100,&quot;baseline&quot;:77.001953125,&quot;elementType&quot;:&quot;word&quot;}"><path d="M51.25345,288.1448h1.65228c1.21547,0 2.40245,-0.07597 3.56094,-0.2279c1.15849,-0.15193 2.21253,-0.47479 3.16212,-0.96858c0.94958,-0.49378 1.77572,-1.19648 2.47841,-2.10808c0.70269,-0.9116 1.20597,-2.12707 1.50984,-3.6464l12.13569,-57.31691c0.15193,-0.41782 0.27538,-0.89261 0.37034,-1.42438c0.09496,-0.53177 0.14244,-0.94958 0.14244,-1.25345c0,-0.83563 -0.20891,-1.51933 -0.62673,-2.0511c-0.41782,-0.53177 -0.99706,-0.94009 -1.73774,-1.22496c-0.74068,-0.28488 -1.63328,-0.47479 -2.67783,-0.56975c-1.04454,-0.09496 -2.17455,-0.14244 -3.39002,-0.14244h-1.48135l1.25345,-6.15331h37.31866c5.58356,0 10.56887,0.6837 14.95595,2.0511c4.38708,1.3674 8.09046,3.39002 11.11014,6.06784c3.01968,2.67783 5.32717,5.99188 6.92247,9.94215c1.5953,3.95027 2.39295,8.50828 2.39295,13.67401c0,4.63397 -0.48429,9.12551 -1.45286,13.4746c-0.96858,4.3491 -2.39295,8.43231 -4.27313,12.24964c-1.88018,3.81733 -4.20666,7.3118 -6.97944,10.48341c-2.77279,3.17161 -5.98238,5.89692 -9.62878,8.17592c-3.6464,2.279 -7.72012,4.04523 -12.22115,5.29868c-4.50103,1.25345 -9.39139,1.88018 -14.67108,1.88018h-41.07902l1.25345,-6.21028M86.06521,287.11925c5.46961,0 10.35047,-1.11101 14.64259,-3.33304c4.29212,-2.22203 7.91953,-5.33666 10.88224,-9.34391c2.9627,-4.00725 5.22271,-8.78365 6.78003,-14.32923c1.55732,-5.54557 2.33598,-11.6419 2.33598,-18.28899c0,-4.06422 -0.47479,-7.58718 -1.42438,-10.56887c-0.94958,-2.98169 -2.30749,-5.44112 -4.07372,-7.37827c-1.76623,-1.93715 -3.91229,-3.37102 -6.43818,-4.30162c-2.52589,-0.93059 -5.34616,-1.39589 -8.4608,-1.39589h-4.89985l-14.58561,68.93982z" data-paper-data="{&quot;elementType&quot;:&quot;letter&quot;,&quot;baseline&quot;:71.38671875,&quot;baselineProportion&quot;:1,&quot;fontSize&quot;:100}"></path><path d="M197.389,295.49458c-3.45649,0 -6.22927,-0.78815 -8.31836,-2.36446c-2.08909,-1.57631 -3.13363,-3.8838 -3.13363,-6.92247c0,-1.21547 0.05698,-2.40245 0.17093,-3.56094c0.11395,-1.15849 0.32286,-2.49741 0.62673,-4.01674h-0.79765c-1.44337,2.69682 -2.87724,5.09927 -4.30162,7.20734c-1.42438,2.10808 -3.01018,3.8743 -4.75742,5.29868c-1.74724,1.42438 -3.69388,2.5069 -5.83994,3.24758c-2.14606,0.74068 -4.64347,1.11101 -7.49222,1.11101c-2.77279,0 -5.20372,-0.54126 -7.29281,-1.62379c-2.08909,-1.08253 -3.82682,-2.57337 -5.21322,-4.47254c-1.38639,-1.89917 -2.43094,-4.14968 -3.13363,-6.75154c-0.70269,-2.60186 -1.05404,-5.42213 -1.05404,-8.4608c0,-3.03867 0.35135,-6.21978 1.05404,-9.54332c0.70269,-3.32355 1.75673,-6.59961 3.16212,-9.8282c1.40538,-3.22859 3.14312,-6.30524 5.21322,-9.22996c2.07009,-2.92472 4.46305,-5.4886 7.17886,-7.69163c2.71581,-2.20304 5.74498,-3.95977 9.08752,-5.27019c3.34254,-1.31043 6.98894,-1.96564 10.93921,-1.96564c1.51933,0 3.06716,0.12345 4.64347,0.37034c1.57631,0.24689 3.08615,0.56025 4.52952,0.94009c1.44337,0.37983 2.80127,0.80715 4.07372,1.28194c1.27244,0.47479 2.34547,0.95908 3.21909,1.45286l6.15331,-2.79178h6.21028l-7.69163,36.40706c-0.15193,0.64572 -0.34185,1.50034 -0.56975,2.56388c-0.2279,1.06353 -0.4463,2.19354 -0.65521,3.39002c-0.20891,1.19648 -0.38933,2.35497 -0.54126,3.47548c-0.15193,1.12051 -0.2279,2.0606 -0.2279,2.82027c0,1.93715 0.37983,3.38052 1.1395,4.3301c0.75967,0.94958 1.74724,1.42438 2.9627,1.42438c1.10152,0 2.15556,-0.2374 3.16212,-0.71219c1.00656,-0.47479 2.11757,-1.05404 3.33304,-1.73774l2.56388,4.67195c-0.98757,0.75967 -2.10808,1.54782 -3.36153,2.36446c-1.25345,0.81664 -2.64934,1.56681 -4.18767,2.25051c-1.53833,0.6837 -3.20959,1.24396 -5.01381,1.68076c-1.80421,0.43681 -3.75086,0.65521 -5.83994,0.65521M164.57137,274.29986c0,2.24102 0.16143,4.1212 0.48429,5.64053c0.32286,1.51933 0.75967,2.7443 1.31043,3.67489c0.55076,0.93059 1.21547,1.5953 1.99413,1.99413c0.77866,0.39883 1.62379,0.59824 2.53539,0.59824c1.70925,0 3.47548,-0.74068 5.29868,-2.22203c1.8232,-1.48135 3.53245,-3.428 5.12776,-5.83994c1.5953,-2.41194 3.02917,-5.13725 4.30162,-8.17592c1.27244,-3.03867 2.23152,-6.11532 2.87724,-9.22996l4.1022,-19.37152c-0.75967,-1.10152 -1.81371,-1.91816 -3.16212,-2.44993c-1.34841,-0.53177 -2.78228,-0.79765 -4.30162,-0.79765c-2.279,0 -4.35859,0.58874 -6.23877,1.76623c-1.88018,1.17748 -3.57993,2.75379 -5.09927,4.72893c-1.51933,1.97514 -2.85825,4.21615 -4.01674,6.72306c-1.15849,2.5069 -2.12707,5.10876 -2.90573,7.80558c-0.77866,2.69682 -1.35791,5.35566 -1.73774,7.97651c-0.37983,2.62085 -0.56975,5.01381 -0.56975,7.17886z" data-paper-data="{&quot;elementType&quot;:&quot;letter&quot;,&quot;baseline&quot;:54.58984375,&quot;baselineProportion&quot;:0.9824253075571178,&quot;fontSize&quot;:100}"></path><path d="M264.32923,283.52982c0,-3.34254 0.62673,-7.97651 1.88018,-13.90191l1.88018,-9.22996c0.15193,-0.75967 0.34185,-1.69026 0.56975,-2.79178c0.2279,-1.10152 0.4558,-2.25051 0.6837,-3.44699c0.2279,-1.19648 0.42731,-2.39295 0.59824,-3.58943c0.17093,-1.19648 0.25639,-2.26951 0.25639,-3.21909c0,-0.72168 -0.06647,-1.48135 -0.19941,-2.279c-0.13294,-0.79765 -0.37983,-1.51933 -0.74068,-2.16505c-0.36084,-0.64572 -0.85463,-1.17748 -1.48135,-1.5953c-0.62673,-0.41782 -1.45286,-0.62673 -2.47841,-0.62673c-1.32942,0 -2.64934,0.4463 -3.95977,1.33891c-1.31043,0.89261 -2.57337,2.07009 -3.78884,3.53245c-1.21547,1.46236 -2.37396,3.13363 -3.47548,5.01381c-1.10152,1.88018 -2.09858,3.80783 -2.99119,5.78297c-0.89261,1.97514 -1.66177,3.91229 -2.30749,5.81146c-0.64572,1.89917 -1.1395,3.60842 -1.48135,5.12776l-5.92541,27.06315h-17.49134l9.79971,-46.43467c0.11395,-0.49378 0.2184,-1.00656 0.31336,-1.53833c0.09496,-0.53177 0.18042,-1.03505 0.25639,-1.50984c0.07597,-0.47479 0.13294,-0.88311 0.17093,-1.22496c0.03798,-0.34185 0.05698,-0.58874 0.05698,-0.74068c0,-1.06353 -0.11395,-1.91816 -0.34185,-2.56388c-0.2279,-0.64572 -0.58874,-1.1395 -1.08253,-1.48135c-0.49378,-0.34185 -1.13001,-0.56975 -1.90866,-0.6837c-0.77866,-0.11395 -1.71875,-0.17093 -2.82027,-0.17093h-2.10808l1.02555,-6.21028h25.92365l-1.31043,12.47754h0.74068c1.48135,-2.31699 3.01018,-4.3301 4.58649,-6.03936c1.57631,-1.70925 3.27607,-3.12413 5.09927,-4.24464c1.8232,-1.12051 3.80783,-1.95614 5.95389,-2.5069c2.14606,-0.55076 4.51053,-0.82614 7.09339,-0.82614c2.46892,0 4.54851,0.36084 6.23877,1.08253c1.69026,0.72168 3.05766,1.69976 4.1022,2.93422c1.04454,1.23446 1.79471,2.65884 2.25051,4.27313c0.4558,1.61429 0.6837,3.31405 0.6837,5.09927c0,0.98757 -0.06647,2.04161 -0.19941,3.16212c-0.13294,1.12051 -0.30387,2.25051 -0.51278,3.39002c-0.20891,1.1395 -0.43681,2.279 -0.6837,3.4185c-0.24689,1.1395 -0.4653,2.22203 -0.65521,3.24758l-2.62085,12.47754c-0.4558,2.12707 -0.83563,4.1117 -1.1395,5.95389c-0.30387,1.84219 -0.4558,3.57993 -0.4558,5.21322c0,1.70925 0.35135,3.01968 1.05404,3.93128c0.70269,0.9116 1.71875,1.3674 3.04817,1.3674c1.21547,0 2.32648,-0.2279 3.33304,-0.6837c1.00656,-0.4558 2.17455,-1.12051 3.50397,-1.99413l2.79178,3.93128c-0.9116,0.98757 -1.95614,1.96564 -3.13363,2.93422c-1.17748,0.96858 -2.49741,1.8327 -3.95977,2.59237c-1.46236,0.75967 -3.08615,1.3674 -4.87137,1.8232c-1.78522,0.4558 -3.74136,0.6837 -5.86843,0.6837c-4.48204,0 -7.91953,-1.05404 -10.31249,-3.16212c-2.39295,-2.10808 -3.58943,-5.04229 -3.58943,-8.80265z" data-paper-data="{&quot;elementType&quot;:&quot;letter&quot;,&quot;baseline&quot;:54.58984375,&quot;baselineProportion&quot;:0.9824253075571178,&quot;fontSize&quot;:100}"></path><path d="M333.09265,231.79647l-8.09046,37.94539c-0.4558,2.12707 -0.83563,4.1117 -1.1395,5.95389c-0.30387,1.84219 -0.4558,3.57993 -0.4558,5.21322c0,1.70925 0.35135,3.01968 1.05404,3.93128c0.70269,0.9116 1.69976,1.3674 2.99119,1.3674c1.21547,0 2.33598,-0.2279 3.36153,-0.6837c1.02555,-0.4558 2.20304,-1.12051 3.53245,-1.99413l2.79178,3.93128c-0.9116,0.98757 -1.95614,1.96564 -3.13363,2.93422c-1.17748,0.96858 -2.5069,1.8327 -3.98825,2.59237c-1.48135,0.75967 -3.10514,1.3674 -4.87137,1.8232c-1.76623,0.4558 -3.71287,0.6837 -5.83994,0.6837c-4.48204,0 -7.91953,-1.05404 -10.31249,-3.16212c-2.39295,-2.10808 -3.58943,-5.04229 -3.58943,-8.80265c0,-1.67127 0.15193,-3.6654 0.4558,-5.98238c0.30387,-2.31699 0.77866,-4.95683 1.42438,-7.91953l4.558,-21.7075c0.11395,-0.49378 0.2184,-1.00656 0.31336,-1.53833c0.09496,-0.53177 0.18042,-1.03505 0.25639,-1.50984c0.07597,-0.47479 0.13294,-0.88311 0.17093,-1.22496c0.03798,-0.34185 0.05698,-0.58874 0.05698,-0.74068c0,-1.06353 -0.11395,-1.91816 -0.34185,-2.56388c-0.2279,-0.64572 -0.58874,-1.1395 -1.08253,-1.48135c-0.49378,-0.34185 -1.13001,-0.56975 -1.90866,-0.6837c-0.77866,-0.11395 -1.71875,-0.17093 -2.82027,-0.17093h-2.10808l1.02555,-6.21028h27.68988M325.00219,221.31306c-1.29143,0 -2.48791,-0.14244 -3.58943,-0.42731c-1.10152,-0.28488 -2.0606,-0.73118 -2.87724,-1.33891c-0.81664,-0.60773 -1.46236,-1.3674 -1.93715,-2.279c-0.47479,-0.9116 -0.71219,-1.97514 -0.71219,-3.1906c0,-1.70925 0.29437,-3.16212 0.88311,-4.35859c0.58874,-1.19648 1.3769,-2.18404 2.36446,-2.9627c0.98757,-0.77866 2.14606,-1.34841 3.47548,-1.70925c1.32942,-0.36084 2.71581,-0.54126 4.15918,-0.54126c1.25345,0 2.44043,0.13294 3.56094,0.39883c1.12051,0.26588 2.10808,0.70269 2.9627,1.31043c0.85463,0.60773 1.53833,1.3769 2.0511,2.30749c0.51278,0.93059 0.76916,2.04161 0.76916,3.33304c0,1.5953 -0.31336,2.99119 -0.94009,4.18767c-0.62673,1.19648 -1.46236,2.18404 -2.5069,2.9627c-1.04454,0.77866 -2.23152,1.35791 -3.56094,1.73774c-1.32942,0.37983 -2.69682,0.56975 -4.1022,0.56975z" data-paper-data="{&quot;elementType&quot;:&quot;letter&quot;,&quot;baseline&quot;:77.001953125,&quot;baselineProportion&quot;:0.9874765184721352,&quot;fontSize&quot;:100}"></path><path d="M432.10983,295.15273c-4.44405,0 -7.86256,-1.06353 -10.25551,-3.1906c-2.39295,-2.12707 -3.58943,-5.07078 -3.58943,-8.83113c0,-1.63328 0.14244,-3.60842 0.42731,-5.92541c0.28488,-2.31699 0.75017,-4.95683 1.39589,-7.91953l1.99413,-9.22996c0.18992,-0.75967 0.40832,-1.69026 0.65521,-2.79178c0.24689,-1.10152 0.47479,-2.25051 0.6837,-3.44699c0.20891,-1.19648 0.38933,-2.39295 0.54126,-3.58943c0.15193,-1.19648 0.2279,-2.26951 0.2279,-3.21909c0,-0.72168 -0.06647,-1.48135 -0.19941,-2.279c-0.13294,-0.79765 -0.37034,-1.51933 -0.71219,-2.16505c-0.34185,-0.64572 -0.81664,-1.17748 -1.42438,-1.5953c-0.60773,-0.41782 -1.38639,-0.62673 -2.33598,-0.62673c-1.25345,0 -2.49741,0.43681 -3.73187,1.31043c-1.23446,0.87362 -2.44043,2.02261 -3.61792,3.44699c-1.17748,1.42438 -2.2885,3.05766 -3.33304,4.89985c-1.04454,1.84219 -1.99413,3.73187 -2.84875,5.66902c-0.85463,1.93715 -1.58581,3.84582 -2.19354,5.72599c-0.60773,1.88018 -1.04454,3.57993 -1.31043,5.09927l-0.9116,4.89985c-0.15193,0.79765 -0.33235,1.88967 -0.54126,3.27607c-0.20891,1.38639 -0.42731,2.87724 -0.65521,4.47254c-0.2279,1.5953 -0.4558,3.22859 -0.6837,4.89985c-0.2279,1.67127 -0.42731,3.21909 -0.59824,4.64347c-0.17093,1.42438 -0.30387,2.64934 -0.39883,3.67489c-0.09496,1.02555 -0.14244,1.69026 -0.14244,1.99413h-18.11807c0,-0.4558 0.06647,-1.25345 0.19941,-2.39295c0.13294,-1.1395 0.31336,-2.47841 0.54126,-4.01674c0.2279,-1.53833 0.49378,-3.2001 0.79765,-4.98532c0.30387,-1.78522 0.60773,-3.57044 0.9116,-5.35566c0.30387,-1.78522 0.60773,-3.48497 0.9116,-5.09927c0.30387,-1.61429 0.58874,-3.01018 0.85463,-4.18767l1.76623,-8.14743c0.15193,-0.72168 0.33235,-1.63328 0.54126,-2.7348c0.20891,-1.10152 0.41782,-2.25051 0.62673,-3.44699c0.20891,-1.19648 0.38933,-2.40245 0.54126,-3.61792c0.15193,-1.21547 0.2279,-2.29799 0.2279,-3.24758c0,-0.72168 -0.03798,-1.46236 -0.11395,-2.22203c-0.07597,-0.75967 -0.2374,-1.45286 -0.48429,-2.07959c-0.24689,-0.62673 -0.62673,-1.1395 -1.1395,-1.53833c-0.51278,-0.39883 -1.20597,-0.59824 -2.07959,-0.59824c-1.29143,0 -2.57337,0.39883 -3.84582,1.19648c-1.27244,0.79765 -2.49741,1.86119 -3.67489,3.1906c-1.17748,1.32942 -2.29799,2.84875 -3.36153,4.558c-1.06353,1.70925 -2.02261,3.46598 -2.87724,5.27019c-0.85463,1.80421 -1.5953,3.58943 -2.22203,5.35566c-0.62673,1.76623 -1.09202,3.37102 -1.39589,4.81439l-6.55213,29.28518h-17.49134l9.79971,-46.43467c0.11395,-0.49378 0.2184,-1.00656 0.31336,-1.53833c0.09496,-0.53177 0.18042,-1.03505 0.25639,-1.50984c0.07597,-0.47479 0.13294,-0.88311 0.17093,-1.22496c0.03798,-0.34185 0.05698,-0.58874 0.05698,-0.74068c0,-1.06353 -0.11395,-1.91816 -0.34185,-2.56388c-0.2279,-0.64572 -0.58874,-1.1395 -1.08253,-1.48135c-0.49378,-0.34185 -1.13001,-0.56975 -1.90866,-0.6837c-0.77866,-0.11395 -1.71875,-0.17093 -2.82027,-0.17093h-2.10808l1.02555,-6.21028h27.06315l-2.22203,11.90779h0.85463c1.51933,-2.35497 3.08615,-4.35859 4.70044,-6.01087c1.61429,-1.65228 3.31405,-3.00069 5.09927,-4.04523c1.78522,-1.04454 3.67489,-1.80421 5.66902,-2.279c1.99413,-0.47479 4.14968,-0.71219 6.46667,-0.71219c2.43094,0 4.46305,0.34185 6.09633,1.02555c1.63328,0.6837 2.94371,1.61429 3.93128,2.79178c0.98757,1.17748 1.69976,2.52589 2.13656,4.04523c0.43681,1.51933 0.65521,3.13363 0.65521,4.84288v0.9116h0.6837c1.44337,-2.31699 2.93422,-4.3491 4.47254,-6.09633c1.53833,-1.74724 3.2001,-3.2001 4.98532,-4.35859c1.78522,-1.15849 3.72237,-2.03211 5.81146,-2.62085c2.08909,-0.58874 4.38708,-0.88311 6.89398,-0.88311c2.39295,0 4.40607,0.36084 6.03936,1.08253c1.63328,0.72168 2.9627,1.69976 3.98825,2.93422c1.02555,1.23446 1.75673,2.65884 2.19354,4.27313c0.43681,1.61429 0.65521,3.31405 0.65521,5.09927c0,0.98757 -0.07597,2.04161 -0.2279,3.16212c-0.15193,1.12051 -0.33235,2.25051 -0.54126,3.39002c-0.20891,1.1395 -0.43681,2.279 -0.6837,3.4185c-0.24689,1.1395 -0.4653,2.22203 -0.65521,3.24758l-2.67783,12.47754c-0.49378,2.08909 -0.89261,4.06422 -1.19648,5.92541c-0.30387,1.86119 -0.4558,3.60842 -0.4558,5.24171c0,1.70925 0.36084,3.01018 1.08253,3.90279c0.72168,0.89261 1.72824,1.33891 3.01968,1.33891c1.21547,0 2.32648,-0.2279 3.33304,-0.6837c1.00656,-0.4558 2.19354,-1.12051 3.56094,-1.99413l2.79178,3.98825c-0.94958,0.98757 -2.01312,1.96564 -3.1906,2.93422c-1.17748,0.96858 -2.49741,1.8327 -3.95977,2.59237c-1.46236,0.75967 -3.08615,1.3674 -4.87137,1.8232c-1.78522,0.4558 -3.74136,0.6837 -5.86843,0.6837z" data-paper-data="{&quot;elementType&quot;:&quot;letter&quot;,&quot;baseline&quot;:54.8828125,&quot;baselineProportion&quot;:0.9876977152899824,&quot;fontSize&quot;:100}"></path></g></g></g></g></g></svg>