<svg version="1.1" xmlns="http://www.w3.org/2000/svg" xmlns:xlink="http://www.w3.org/1999/xlink" width="500" height="330"><g data-paper-data="{&quot;description&quot;:&quot;Logo for 404\n============\n\nThis logo was generated by MarkMaker at http://emblemmatic.org/markmaker/ and may be composed of elements designed by others.\n\nThe font is Encode Sans Narrow Black designed by Impallari Type and released under the OFL license via Google Fonts: https://www.google.com/fonts/specimen/Encode%20Sans%20Narrow. The font includes this copyright statement: Copyright (c) 2012, Impallari Type (www.impallari.com), with Reserved Font Name Encode Sans.\n\nMarkMaker uses semantic data from the Princeton University WordNet database http://wordnet.princeton.edu and font descriptions from Google Fonts https://www.google.com/fonts.&quot;}" fill="#5e9090" fill-rule="nonzero" stroke="none" stroke-width="1" stroke-linecap="butt" stroke-linejoin="miter" stroke-miterlimit="10" stroke-dasharray="" stroke-dashoffset="0" font-family="none" font-weight="none" font-size="none" text-anchor="none" style="mix-blend-mode: normal"><g data-paper-data="{&quot;elementType&quot;:&quot;logo&quot;}"><g data-paper-data="{&quot;elementType&quot;:&quot;text&quot;}"><g data-paper-data="{&quot;baseline&quot;:75,&quot;elementType&quot;:&quot;row&quot;}"><g data-paper-data="{&quot;baselineProportion&quot;:0.9868421052631579,&quot;fontSize&quot;:100,&quot;baseline&quot;:75,&quot;elementType&quot;:&quot;word&quot;}"><path d="M50,269.40163v-1.63191l43.51768,-86.67271h0.72529l38.98459,2.71985l1.63191,2.53853l-46.05621,77.24388v0.72529h23.93472l7.43427,-29.37443h28.28649v29.37443h17.40707v28.64914h-17.40707v24.11605h-38.62194v-24.11605h-56.39166z" data-paper-data="{&quot;elementType&quot;:&quot;letter&quot;,&quot;baseline&quot;:75,&quot;baselineProportion&quot;:1,&quot;fontSize&quot;:100}"></path><path d="M250.72529,318.90299c-18.6159,0 -32.97069,-5.77214 -43.06437,-17.31641c-10.09368,-11.54427 -15.14053,-28.67936 -15.14053,-51.40526c0,-22.96766 5.01662,-40.22363 15.04986,-51.76791c10.03324,-11.54427 24.41825,-17.31641 43.15503,-17.31641c18.73678,0 33.15201,5.77214 43.24569,17.31641c10.09368,11.54427 15.14053,28.80024 15.14053,51.76791c0,22.84678 -5.04684,40.01209 -15.14053,51.49592c-10.09368,11.48383 -24.50892,17.22575 -43.24569,17.22575M250.72529,287.89665c3.50559,0 6.49743,-0.57419 8.97552,-1.72257c2.47809,-1.14838 4.50287,-3.17316 6.07434,-6.07434c1.57147,-2.90118 2.71985,-6.76942 3.44515,-11.60471c0.72529,-4.8353 1.08794,-10.93986 1.08794,-18.31369c0,-7.37383 -0.36265,-13.50861 -1.08794,-18.40435c-0.72529,-4.89574 -1.87368,-8.7942 -3.44515,-11.69538c-1.57147,-2.90118 -3.59625,-4.95618 -6.07434,-6.165c-2.47809,-1.20882 -5.46993,-1.81324 -8.97552,-1.81324c-3.50559,0 -6.49743,0.60441 -8.97552,1.81324c-2.47809,1.20882 -4.50287,3.26383 -6.07434,6.165c-1.57147,2.90118 -2.68963,6.79964 -3.35449,11.69538c-0.66485,4.89574 -0.99728,11.03052 -0.99728,18.40435c0,7.25295 0.33243,13.29707 0.99728,18.13237c0.66485,4.8353 1.78302,8.70354 3.35449,11.60471c1.57147,2.90118 3.59625,4.95618 6.07434,6.165c2.47809,1.20882 5.46993,1.81324 8.97552,1.81324z" data-paper-data="{&quot;elementType&quot;:&quot;letter&quot;,&quot;baseline&quot;:75,&quot;baselineProportion&quot;:0.9868421052631579,&quot;fontSize&quot;:100}"></path><path d="M334.13418,269.40163v-1.63191l43.51768,-86.67271h0.72529l38.98459,2.71985l1.63191,2.53853l-46.05621,77.24388v0.72529h23.93472l7.43427,-29.37443h28.28649v29.37443h17.40707v28.64914h-17.40707v24.11605h-38.62194v-24.11605h-56.39166z" data-paper-data="{&quot;elementType&quot;:&quot;letter&quot;,&quot;baseline&quot;:75,&quot;baselineProportion&quot;:1,&quot;fontSize&quot;:100}"></path></g></g></g></g></g></svg>